<?xml version="1.0" encoding="UTF-8" standalone="no"?>
<!-- Created with Inkscape (http://www.inkscape.org/) -->

<svg
   width="50.24604mm"
   height="41.265865mm"
   viewBox="0 0 50.24604 41.265865"
   version="1.1"
   id="svg1"
   xmlns="http://www.w3.org/2000/svg"
   xmlns:svg="http://www.w3.org/2000/svg">
  <defs
     id="defs1" />
  <g
     id="layer1"
     transform="translate(-86.700747,-74.734947)">
    <path
       d="m 96.9595,74.904106 c 5.4912,0 9.94267,4.451465 9.94267,9.942671 v 3.525488 h -3.32743 v -3.525488 c 0,-3.653516 -2.96172,-6.615243 -6.61524,-6.615243 h -6.61525 v 7.050977 c 0,3.544107 2.87308,6.417182 6.41719,6.417182 h 10.14073 V 95.02712 H 96.76144 l -0.12597,-7.93e-4 c -5.28182,-0.06687 -9.55098,-4.336034 -9.61785,-9.61785 l -9e-4,-0.125967 V 74.904105 Z"
       fill="#1f2851"
       id="path1"
       style="stroke-width:0.0792244" />
    <path
       d="m 118.3501,74.904106 c -5.4912,0 -9.94267,4.451465 -9.94267,9.942671 V 95.02712 h 10.14074 l 0.12596,-7.93e-4 c 5.28182,-0.06687 9.55099,-4.336034 9.61785,-9.61785 l 9e-4,-0.125967 V 74.904105 Z m 6.61525,10.378405 c 0,3.544107 -2.87308,6.417182 -6.41718,6.417182 h -6.81331 v -6.852916 c 0,-3.653516 2.96173,-6.615243 6.61524,-6.615243 h 6.61525 z"
       fill="#1075e4"
       id="path2"
       style="stroke-width:0.0792244" />
    <path
       d="m 106.90217,101.95926 -9e-4,0.12597 c -0.0669,5.28181 -4.33603,9.55098 -9.61785,9.61785 l -0.12596,7.8e-4 H 86.77905 v -9.94266 c 0,-2.260908 0.75477,-4.345462 2.02593,-6.015751 0.92692,0.663822 1.97506,1.169115 3.10481,1.476268 -1.11802,1.184644 -1.80331,2.782043 -1.80331,4.539483 v 6.61524 h 7.05098 c 3.5441,0 6.41718,-2.87307 6.41718,-6.41718 V 91.81853 h 3.32742 z"
       fill="#1f2851"
       id="path3"
       style="stroke-width:0.0792244" />
    <path
       d="m 118.3501,91.778917 c 5.49121,0 9.94268,4.451465 9.94268,9.942673 v 9.78422 h -3.32743 v -9.78422 c 0,-3.653518 -2.96173,-6.615245 -6.61525,-6.615245 h -6.61524 v 14.383915 c -2.01008,-1.76045 -3.29027,-4.33374 -3.32663,-7.20697 l -9e-4,-0.12597 V 91.778917 Z"
       fill="#1075e4"
       id="path4"
       style="stroke-width:0.0792244" />
    <path
       d="m 96.9595,74.904106 c 5.4912,0 9.94267,4.451465 9.94267,9.942671 v 3.525488 h -3.32743 v -3.525488 c 0,-3.653516 -2.96172,-6.615243 -6.61524,-6.615243 h -6.61525 v 7.050977 c 0,3.544107 2.87308,6.417182 6.41719,6.417182 h 10.14073 V 95.02712 H 96.76144 l -0.12597,-7.93e-4 c -5.28182,-0.06687 -9.55098,-4.336034 -9.61785,-9.61785 l -9e-4,-0.125967 V 74.904105 Z"
       fill="#1f2851"
       id="path6"
       style="fill:#6da02c;fill-opacity:1;stroke-width:0.0792244" />
    <path
       d="m 118.3501,74.904106 c -5.4912,0 -9.94267,4.451465 -9.94267,9.942671 V 95.02712 h 10.14074 l 0.12596,-7.93e-4 c 5.28182,-0.06687 9.55099,-4.336034 9.61785,-9.61785 l 9e-4,-0.125967 V 74.904105 Z m 6.61525,10.378405 c 0,3.544107 -2.87308,6.417182 -6.41718,6.417182 h -6.81331 v -6.852916 c 0,-3.653516 2.96173,-6.615243 6.61524,-6.615243 h 6.61525 z"
       fill="#1075e4"
       id="path7"
       style="stroke-width:0.0792244" />
    <path
       d="m 106.90217,101.95926 -9e-4,0.12597 c -0.0669,5.28181 -4.33603,9.55098 -9.61785,9.61785 l -0.12596,7.8e-4 H 86.77905 v -9.94266 c 0,-2.260908 0.75477,-4.345462 2.02593,-6.015751 0.92692,0.663822 1.97506,1.169115 3.10481,1.476268 -1.11802,1.184644 -1.80331,2.782043 -1.80331,4.539483 v 6.61524 h 7.05098 c 3.5441,0 6.41718,-2.87307 6.41718,-6.41718 V 91.81853 h 3.32742 z"
       fill="#1f2851"
       id="path8"
       style="fill:#6da02c;fill-opacity:1;stroke-width:0.0792244" />
    <path
       d="m 118.3501,91.778917 c 5.49121,0 9.94268,4.451465 9.94268,9.942673 v 9.78422 h -3.32743 v -9.78422 c 0,-3.653518 -2.96173,-6.615245 -6.61525,-6.615245 h -6.61524 v 14.383915 c -2.01008,-1.76045 -3.29027,-4.33374 -3.32663,-7.20697 l -9e-4,-0.12597 V 91.778917 Z"
       fill="#1075e4"
       id="path9"
       style="stroke-width:0.0792244" />
    <path
       d="M 131.69569,80.322924 V 79.7202 l 1.2735,-1.190865 c 0.0907,-0.08427 0.15718,-0.158767 0.19929,-0.223592 0.0454,-0.06482 0.0745,-0.123152 0.0875,-0.174984 0.0162,-0.0551 0.0243,-0.105298 0.0243,-0.150681 0,-0.110159 -0.0372,-0.196063 -0.11179,-0.257616 -0.0713,-0.06155 -0.17985,-0.09235 -0.32567,-0.09235 -0.12315,0 -0.23817,0.02753 -0.3451,0.08263 -0.10694,0.0551 -0.19443,0.137735 -0.26248,0.247894 l -0.71452,-0.398575 c 0.12638,-0.21387 0.30945,-0.38563 0.54926,-0.515232 0.23981,-0.129602 0.52659,-0.194427 0.86034,-0.194427 0.26248,0 0.49257,0.04211 0.69021,0.126378 0.19766,0.08427 0.35161,0.204148 0.46177,0.35969 0.11343,0.155541 0.17012,0.338611 0.17012,0.549256 0,0.11016 -0.0146,0.220367 -0.0437,0.330526 -0.0292,0.106935 -0.0859,0.221955 -0.17013,0.345108 -0.081,0.119881 -0.20251,0.254392 -0.36455,0.403436 l -1.01102,0.93325 -0.1604,-0.340247 h 1.8422 v 0.763126 z"
       fill="#eecb00"
       id="path10"
       style="fill:#1075e4;fill-opacity:1;stroke-width:0.0481255" />
    <text
       xml:space="preserve"
       style="font-style:normal;font-variant:normal;font-weight:500;font-stretch:condensed;font-size:8.12179px;font-family:'Roboto Condensed';-inkscape-font-specification:'Roboto Condensed,  Medium Condensed';text-align:start;writing-mode:lr-tb;direction:ltr;text-anchor:start;fill:#6da02c;fill-opacity:1;stroke:#ff0000;stroke-width:0"
       x="-112.81068"
       y="135.274"
       id="text7"
       transform="rotate(-90.308236)"><tspan
         id="tspan6"
         style="fill:#6da02c;fill-opacity:1;stroke-width:0"
         x="-112.81068"
         y="135.274">EDGE</tspan></text>
    <text
       xml:space="preserve"
       style="font-style:normal;font-variant:normal;font-weight:500;font-stretch:condensed;font-size:2.48867px;font-family:'Roboto Condensed';-inkscape-font-specification:'Roboto Condensed,  Medium Condensed';text-align:start;writing-mode:lr-tb;direction:ltr;text-anchor:start;fill:#1075e4;fill-opacity:1;stroke:#ff0000;stroke-width:0;stroke-dasharray:none"
       x="87.819099"
       y="113.20454"
       id="text102"
       transform="scale(0.98691022,1.0132634)"><tspan
         id="tspan102"
         style="font-style:normal;font-variant:normal;font-weight:500;font-stretch:condensed;font-family:'Roboto Condensed';-inkscape-font-specification:'Roboto Condensed,  Medium Condensed';fill:#1075e4;fill-opacity:1;stroke-width:0"
         x="87.819099"
         y="113.20454">your partner at the edge of possibility.</tspan></text>
    <rect
       style="fill:#1f2851;fill-opacity:1;stroke:#ff0000;stroke-width:0"
       id="rect9"
       width="10.711606"
       height="3.3"
       x="125.68297"
       y="112.70081" />
    <rect
       style="fill:#1075e4;fill-opacity:1;stroke:#ff0000;stroke-width:0"
       id="rect8"
       width="3.3"
       height="3.3"
       x="125.02818"
       y="112.3665" />
    <rect
       style="fill:none;fill-opacity:1;stroke:#1f2851;stroke-width:1;stroke-linecap:butt;stroke-linejoin:miter;stroke-dasharray:none;stroke-dashoffset:0"
       id="rect10"
       width="7.0280409"
       height="6.7054367"
       x="129.41875"
       y="75.234947" />
  </g>
</svg>
